# 3ds Max Wavefront OBJ Exporter v0.97b - (c)2007 guruware
# File Created: 16.05.2019 09:09:53

mtllib ChocolateTub.mtl

#
# object Box001
#

v  2.1964 1.5254 1.9598
v  3.0906 1.5254 1.9598
v  3.0906 1.5254 0.0813
v  2.1964 1.5254 0.0813
v  3.9849 1.5254 1.9598
v  3.9849 1.5254 0.0813
v  3.0906 1.5254 -1.7972
v  2.1964 1.5254 -1.7972
v  3.9849 1.5254 -1.7972
v  2.1964 -0.4431 1.9598
v  2.1964 -0.4431 0.0813
v  3.0906 -0.4431 0.0813
v  3.0906 -0.4431 1.9598
v  3.9849 -0.4431 0.0813
v  3.9849 -0.4431 1.9598
v  2.1964 -0.4431 -1.7972
v  3.0906 -0.4431 -1.7972
v  3.9849 -0.4431 -1.7972
v  2.1964 1.4354 2.0498
v  2.1964 0.5412 2.0498
v  3.0906 0.5412 2.0498
v  3.0906 1.4354 2.0498
v  3.9849 0.5412 2.0498
v  3.9849 1.4354 2.0498
v  2.1964 -0.3531 2.0498
v  3.0906 -0.3531 2.0498
v  3.9849 -0.3531 2.0498
v  4.0749 1.4354 1.9598
v  4.0749 0.5412 1.9598
v  4.0749 0.5412 0.0813
v  4.0749 1.4354 0.0813
v  4.0749 0.5412 -1.7972
v  4.0749 1.4354 -1.7972
v  4.0749 -0.3531 1.9598
v  4.0749 -0.3531 0.0813
v  4.0749 -0.3531 -1.7972
v  3.9849 1.4354 -1.8872
v  3.9849 0.5412 -1.8872
v  3.0906 0.5412 -1.8872
v  3.0906 1.4354 -1.8872
v  2.1964 0.5412 -1.8872
v  2.1964 1.4354 -1.8872
v  3.9849 -0.3531 -1.8872
v  3.0906 -0.3531 -1.8872
v  2.1964 -0.3531 -1.8872
v  2.1064 1.4354 -1.7972
v  2.1064 0.5412 -1.7972
v  2.1064 0.5412 0.0813
v  2.1064 1.4354 0.0813
v  2.1064 0.5412 1.9598
v  2.1064 1.4354 1.9598
v  2.1064 -0.3531 -1.7972
v  2.1064 -0.3531 0.0813
v  2.1064 -0.3531 1.9598
v  2.1514 1.4804 1.9598
v  2.1664 1.4654 1.9898
v  2.1964 1.4804 2.0048
v  3.9849 1.4804 2.0048
v  4.0149 1.4654 1.9898
v  4.0299 1.4804 1.9598
v  2.1964 1.4804 -1.8422
v  2.1664 1.4654 -1.8272
v  2.1514 1.4804 -1.7972
v  4.0299 1.4804 -1.7972
v  4.0149 1.4654 -1.8272
v  3.9849 1.4804 -1.8422
v  2.1964 -0.3981 2.0048
v  2.1664 -0.3831 1.9898
v  2.1514 -0.3981 1.9598
v  4.0299 -0.3981 1.9598
v  4.0149 -0.3831 1.9898
v  3.9849 -0.3981 2.0048
v  2.1514 -0.3981 -1.7972
v  2.1664 -0.3831 -1.8272
v  2.1964 -0.3981 -1.8422
v  3.9849 -0.3981 -1.8422
v  4.0149 -0.3831 -1.8272
v  4.0299 -0.3981 -1.7972
v  2.1514 1.4354 2.0048
v  4.0299 1.4354 2.0048
v  2.1514 -0.3531 2.0048
v  4.0299 -0.3531 2.0048
v  4.0299 1.4354 -1.8422
v  4.0299 -0.3531 -1.8422
v  2.1514 1.4354 -1.8422
v  2.1514 -0.3531 -1.8422
v  3.0906 1.4804 2.0048
v  2.1514 1.4804 0.0813
v  4.0299 1.4804 0.0813
v  3.0906 1.4804 -1.8422
v  2.1514 -0.3981 0.0813
v  3.0906 -0.3981 2.0048
v  4.0299 -0.3981 0.0813
v  3.0906 -0.3981 -1.8422
v  2.1514 0.5412 2.0048
v  4.0299 0.5412 2.0048
v  4.0299 0.5412 -1.8422
v  2.1514 0.5412 -1.8422
# 98 vertices

vn -0.3416 0.8756 0.3416
vn 0.0000 0.9239 0.3827
vn 0.0000 1.0000 -0.0000
vn -0.3826 0.9239 -0.0000
vn 0.3416 0.8756 0.3416
vn 0.3826 0.9239 -0.0000
vn 0.0000 0.9239 -0.3827
vn -0.3416 0.8756 -0.3416
vn 0.3416 0.8756 -0.3416
vn -0.3416 -0.8756 0.3416
vn -0.3827 -0.9239 -0.0000
vn 0.0000 -1.0000 -0.0000
vn 0.0000 -0.9239 0.3826
vn 0.3827 -0.9239 -0.0000
vn 0.3416 -0.8756 0.3416
vn -0.3416 -0.8756 -0.3416
vn 0.0000 -0.9239 -0.3826
vn 0.3416 -0.8756 -0.3416
vn -0.3416 0.3416 0.8756
vn -0.3827 0.0000 0.9239
vn 0.0000 0.0000 1.0000
vn 0.0000 0.3827 0.9239
vn 0.3827 0.0000 0.9239
vn 0.3416 0.3416 0.8756
vn -0.3416 -0.3416 0.8756
vn 0.0000 -0.3826 0.9239
vn 0.3416 -0.3416 0.8756
vn 0.8756 0.3416 0.3416
vn 0.9239 0.0000 0.3827
vn 1.0000 0.0000 -0.0000
vn 0.9239 0.3826 -0.0000
vn 0.9239 0.0000 -0.3827
vn 0.8756 0.3416 -0.3416
vn 0.8756 -0.3416 0.3416
vn 0.9239 -0.3827 -0.0000
vn 0.8756 -0.3416 -0.3416
vn 0.3416 0.3416 -0.8756
vn 0.3827 0.0000 -0.9239
vn 0.0000 0.0000 -1.0000
vn 0.0000 0.3827 -0.9239
vn -0.3827 0.0000 -0.9239
vn -0.3416 0.3416 -0.8756
vn 0.3416 -0.3416 -0.8756
vn 0.0000 -0.3826 -0.9239
vn -0.3416 -0.3416 -0.8756
vn -0.8756 0.3416 -0.3416
vn -0.9239 0.0000 -0.3827
vn -1.0000 0.0000 -0.0000
vn -0.9239 0.3826 -0.0000
vn -0.9239 0.0000 0.3827
vn -0.8756 0.3416 0.3416
vn -0.8756 -0.3416 -0.3416
vn -0.9239 -0.3827 -0.0000
vn -0.8756 -0.3416 0.3416
vn -0.6739 0.6739 0.3029
vn -0.5774 0.5774 0.5774
vn -0.3029 0.6739 0.6739
vn 0.3029 0.6739 0.6739
vn 0.5774 0.5774 0.5774
vn 0.6739 0.6739 0.3029
vn -0.3029 0.6739 -0.6739
vn -0.5774 0.5774 -0.5774
vn -0.6739 0.6739 -0.3029
vn 0.6739 0.6739 -0.3029
vn 0.5774 0.5774 -0.5774
vn 0.3029 0.6739 -0.6739
vn -0.3029 -0.6739 0.6739
vn -0.5773 -0.5774 0.5774
vn -0.6739 -0.6739 0.3029
vn 0.6739 -0.6739 0.3029
vn 0.5773 -0.5774 0.5774
vn 0.3029 -0.6739 0.6739
vn -0.6739 -0.6739 -0.3029
vn -0.5773 -0.5774 -0.5774
vn -0.3029 -0.6739 -0.6739
vn 0.3029 -0.6739 -0.6739
vn 0.5773 -0.5774 -0.5774
vn 0.6739 -0.6739 -0.3029
vn -0.6739 0.3029 0.6739
vn 0.6739 0.3029 0.6739
vn -0.6739 -0.3029 0.6739
vn 0.6739 -0.3029 0.6739
vn 0.6739 0.3029 -0.6739
vn 0.6739 -0.3029 -0.6739
vn -0.6739 0.3029 -0.6739
vn -0.6739 -0.3029 -0.6739
vn 0.0000 0.7071 0.7071
vn -0.7071 0.7071 -0.0000
vn 0.7071 0.7071 -0.0000
vn 0.0000 0.7071 -0.7071
vn -0.7071 -0.7071 -0.0000
vn 0.0000 -0.7071 0.7071
vn 0.7071 -0.7071 -0.0000
vn 0.0000 -0.7071 -0.7071
vn -0.7071 0.0000 0.7071
vn 0.7071 0.0000 0.7071
vn 0.7071 0.0000 -0.7071
vn -0.7071 0.0000 -0.7071
# 98 vertex normals

vt 0.9543 0.0229 0.0000
vt 0.5000 0.0229 0.0000
vt 0.5000 0.5000 0.0000
vt 0.9543 0.5000 0.0000
vt 0.0457 0.0229 0.0000
vt 0.0457 0.5000 0.0000
vt 0.5000 0.9771 0.0000
vt 0.9543 0.9771 0.0000
vt 0.0457 0.9771 0.0000
vt 0.0457 0.0457 0.0000
vt 0.5000 0.0457 0.0000
vt 0.9543 0.0457 0.0000
vt 0.0457 0.9543 0.0000
vt 0.5000 0.9543 0.0000
vt 0.9543 0.9543 0.0000
vt 0.0229 0.0457 0.0000
vt 0.0229 0.5000 0.0000
vt 0.9771 0.5000 0.0000
vt 0.9771 0.0457 0.0000
vt 0.0229 0.9543 0.0000
vt 0.9771 0.9543 0.0000
vt 1.0000 0.0229 0.0000
vt 1.0000 0.0000 0.0000
vt 0.9543 0.0000 0.0000
vt 0.0457 0.0000 0.0000
vt 0.0000 0.0000 0.0000
vt 0.0000 0.0229 0.0000
vt 0.9543 1.0000 0.0000
vt 1.0000 1.0000 0.0000
vt 1.0000 0.9771 0.0000
vt 0.0000 0.9771 0.0000
vt 0.0000 1.0000 0.0000
vt 0.0457 1.0000 0.0000
vt 0.0000 0.0457 0.0000
vt 1.0000 0.0457 0.0000
vt 0.0000 0.9543 0.0000
vt 1.0000 0.9543 0.0000
vt 0.0229 0.0000 0.0000
vt 0.9771 0.0000 0.0000
vt 0.0229 1.0000 0.0000
vt 0.9771 1.0000 0.0000
vt 0.5000 0.0000 0.0000
vt 1.0000 0.5000 0.0000
vt 0.0000 0.5000 0.0000
vt 0.5000 1.0000 0.0000
# 45 texture coords

o Box001
g Box001
usemtl Material__25
s 1
f 1/1/1 2/2/2 3/3/3 4/4/4 
f 2/2/2 5/5/5 6/6/6 3/3/3 
f 4/4/4 3/3/3 7/7/7 8/8/8 
f 3/3/3 6/6/6 9/9/9 7/7/7 
f 10/5/10 11/6/11 12/3/12 13/2/13 
f 13/2/13 12/3/12 14/4/14 15/1/15 
f 11/6/11 16/9/16 17/7/17 12/3/12 
f 12/3/12 17/7/17 18/8/18 14/4/14 
f 19/10/19 20/6/20 21/3/21 22/11/22 
f 22/11/22 21/3/21 23/4/23 24/12/24 
f 20/6/20 25/13/25 26/14/26 21/3/21 
f 21/3/21 26/14/26 27/15/27 23/4/23 
f 28/16/28 29/17/29 30/3/30 31/11/31 
f 31/11/31 30/3/30 32/18/32 33/19/33 
f 29/17/29 34/20/34 35/14/35 30/3/30 
f 30/3/30 35/14/35 36/21/36 32/18/32 
f 37/10/37 38/6/38 39/3/39 40/11/40 
f 40/11/40 39/3/39 41/4/41 42/12/42 
f 38/6/38 43/13/43 44/14/44 39/3/39 
f 39/3/39 44/14/44 45/15/45 41/4/41 
f 46/16/46 47/17/47 48/3/48 49/11/49 
f 49/11/49 48/3/48 50/18/50 51/19/51 
f 47/17/47 52/20/52 53/14/53 48/3/48 
f 48/3/48 53/14/53 54/21/54 50/18/50 
s 2
f 1/1/1 55/22/55 56/23/56 57/24/57 
f 5/5/5 58/25/58 59/26/59 60/27/60 
f 8/8/8 61/28/61 62/29/62 63/30/63 
f 9/9/9 64/31/64 65/32/65 66/33/66 
f 10/5/10 67/25/67 68/26/68 69/27/69 
f 15/1/15 70/22/70 71/23/71 72/24/72 
f 16/9/16 73/31/73 74/32/74 75/33/75 
f 18/8/18 76/28/76 77/29/77 78/30/78 
f 19/10/19 57/25/57 56/26/56 79/34/79 
f 24/12/24 80/35/80 59/23/59 58/24/58 
f 25/13/25 81/36/81 68/32/68 67/33/67 
f 27/15/27 72/28/72 71/29/71 82/37/82 
f 28/16/28 60/38/60 59/26/59 80/34/80 
f 33/19/33 83/35/83 65/23/65 64/39/64 
f 34/20/34 82/36/82 71/32/71 70/40/70 
f 36/21/36 78/41/78 77/29/77 84/37/84 
f 37/10/37 66/25/66 65/26/65 83/34/83 
f 42/12/42 85/35/85 62/23/62 61/24/61 
f 43/13/43 84/36/84 77/32/77 76/33/76 
f 45/15/45 75/28/75 74/29/74 86/37/86 
f 46/16/46 63/38/63 62/26/62 85/34/85 
f 51/19/51 79/35/79 56/23/56 55/39/55 
f 52/20/52 86/36/86 74/32/74 73/40/73 
f 54/21/54 69/41/69 68/29/68 81/37/81 
s 4
f 2/2/2 1/1/1 57/24/57 87/42/87 
s 8
f 1/1/1 4/4/4 88/43/88 55/22/55 
s 4
f 5/5/5 2/2/2 87/42/87 58/25/58 
s 8
f 6/6/6 5/5/5 60/27/60 89/44/89 
s 4
f 8/8/8 7/7/7 90/45/90 61/28/61 
s 8
f 4/4/4 8/8/8 63/30/63 88/43/88 
f 9/9/9 6/6/6 89/44/89 64/31/64 
s 4
f 7/7/7 9/9/9 66/33/66 90/45/90 
f 11/6/11 10/5/10 69/27/69 91/44/91 
s 8
f 10/5/10 13/2/13 92/42/92 67/25/67 
s 4
f 15/1/15 14/4/14 93/43/93 70/22/70 
s 8
f 13/2/13 15/1/15 72/24/72 92/42/92 
s 4
f 16/9/16 11/6/11 91/44/91 73/31/73 
s 8
f 17/7/17 16/9/16 75/33/75 94/45/94 
f 18/8/18 17/7/17 94/45/94 76/28/76 
s 4
f 14/4/14 18/8/18 78/30/78 93/43/93 
s 16
f 20/6/20 19/10/19 79/34/79 95/44/95 
s 4
f 19/10/19 22/11/22 87/42/87 57/25/57 
s 16
f 24/12/24 23/4/23 96/43/96 80/35/80 
s 4
f 22/11/22 24/12/24 58/24/58 87/42/87 
s 16
f 25/13/25 20/6/20 95/44/95 81/36/81 
s 8
f 26/14/26 25/13/25 67/33/67 92/45/92 
f 27/15/27 26/14/26 92/45/92 72/28/72 
s 16
f 23/4/23 27/15/27 82/37/82 96/43/96 
f 29/17/29 28/16/28 80/34/80 96/44/96 
s 8
f 28/16/28 31/11/31 89/42/89 60/38/60 
s 16
f 33/19/33 32/18/32 97/43/97 83/35/83 
s 8
f 31/11/31 33/19/33 64/39/64 89/42/89 
s 16
f 34/20/34 29/17/29 96/44/96 82/36/82 
s 4
f 35/14/35 34/20/34 70/40/70 93/45/93 
f 36/21/36 35/14/35 93/45/93 78/41/78 
s 16
f 32/18/32 36/21/36 84/37/84 97/43/97 
f 38/6/38 37/10/37 83/34/83 97/44/97 
s 4
f 37/10/37 40/11/40 90/42/90 66/25/66 
s 16
f 42/12/42 41/4/41 98/43/98 85/35/85 
s 4
f 40/11/40 42/12/42 61/24/61 90/42/90 
s 16
f 43/13/43 38/6/38 97/44/97 84/36/84 
s 8
f 44/14/44 43/13/43 76/33/76 94/45/94 
f 45/15/45 44/14/44 94/45/94 75/28/75 
s 16
f 41/4/41 45/15/45 86/37/86 98/43/98 
f 47/17/47 46/16/46 85/34/85 98/44/98 
s 8
f 46/16/46 49/11/49 88/42/88 63/38/63 
s 16
f 51/19/51 50/18/50 95/43/95 79/35/79 
s 8
f 49/11/49 51/19/51 55/39/55 88/42/88 
s 16
f 52/20/52 47/17/47 98/44/98 86/36/86 
s 4
f 53/14/53 52/20/52 73/40/73 91/45/91 
f 54/21/54 53/14/53 91/45/91 69/41/69 
s 16
f 50/18/50 54/21/54 81/37/81 95/43/95 
# 96 polygons

#
# object Box002
#

v  2.0720 -0.4747 2.0387
v  2.0720 -0.4747 0.0711
v  3.0779 -0.4747 0.0711
v  3.0779 -0.4747 2.0387
v  4.0838 -0.4747 0.0711
v  4.0838 -0.4747 2.0387
v  2.0720 -0.4747 -1.8966
v  3.0779 -0.4747 -1.8966
v  4.0838 -0.4747 -1.8966
v  2.0720 1.4531 2.0387
v  3.0779 1.4531 2.0387
v  3.0779 1.4531 0.0711
v  2.0720 1.4531 0.0711
v  4.0838 1.4531 2.0387
v  4.0838 1.4531 0.0711
v  3.0779 1.4531 -1.8966
v  2.0720 1.4531 -1.8966
v  4.0838 1.4531 -1.8966
v  2.0720 -0.3302 2.1487
v  3.0779 -0.3302 2.1487
v  3.0779 0.4892 2.1487
v  2.0720 0.4892 2.1487
v  4.0838 -0.3302 2.1487
v  4.0838 0.4892 2.1487
v  3.0779 1.3086 2.1487
v  2.0720 1.3086 2.1487
v  4.0838 1.3086 2.1487
v  4.1938 -0.3302 2.0387
v  4.1938 -0.3302 0.0711
v  4.1938 0.4892 0.0711
v  4.1938 0.4892 2.0387
v  4.1938 -0.3302 -1.8966
v  4.1938 0.4892 -1.8966
v  4.1938 1.3086 0.0711
v  4.1938 1.3086 2.0387
v  4.1938 1.3086 -1.8966
v  4.0838 -0.3302 -2.0066
v  3.0779 -0.3302 -2.0066
v  3.0779 0.4892 -2.0066
v  4.0838 0.4892 -2.0066
v  2.0720 -0.3302 -2.0066
v  2.0720 0.4892 -2.0066
v  3.0779 1.3086 -2.0066
v  4.0838 1.3086 -2.0066
v  2.0720 1.3086 -2.0066
v  1.9620 -0.3302 -1.8966
v  1.9620 -0.3302 0.0711
v  1.9620 0.4892 0.0711
v  1.9620 0.4892 -1.8966
v  1.9620 -0.3302 2.0387
v  1.9620 0.4892 2.0387
v  1.9620 1.3086 0.0711
v  1.9620 1.3086 -1.8966
v  1.9620 1.3086 2.0387
v  2.0720 -0.4024 2.0937
v  2.0353 -0.3783 2.0754
v  2.0170 -0.4024 2.0387
v  4.1388 -0.4024 2.0387
v  4.1204 -0.3783 2.0754
v  4.0838 -0.4024 2.0937
v  2.0170 -0.4024 -1.8966
v  2.0353 -0.3783 -1.9333
v  2.0720 -0.4024 -1.9516
v  4.0838 -0.4024 -1.9516
v  4.1204 -0.3783 -1.9333
v  4.1388 -0.4024 -1.8966
v  2.0170 1.3808 2.0387
v  2.0353 1.3567 2.0754
v  2.0720 1.3808 2.0937
v  4.0838 1.3808 2.0937
v  4.1204 1.3567 2.0754
v  4.1388 1.3808 2.0387
v  2.0720 1.3808 -1.9516
v  2.0353 1.3567 -1.9333
v  2.0170 1.3808 -1.8966
v  4.1388 1.3808 -1.8966
v  4.1204 1.3567 -1.9333
v  4.0838 1.3808 -1.9516
v  2.0170 -0.3302 2.0937
v  4.1388 -0.3302 2.0937
v  2.0170 1.3086 2.0937
v  4.1388 1.3086 2.0937
v  4.1388 -0.3302 -1.9516
v  4.1388 1.3086 -1.9516
v  2.0170 -0.3302 -1.9516
v  2.0170 1.3086 -1.9516
v  2.0170 -0.4024 0.0711
v  3.0779 -0.4024 2.0937
v  4.1388 -0.4024 0.0711
v  3.0779 -0.4024 -1.9516
v  3.0779 1.3808 2.0937
v  2.0170 1.3808 0.0711
v  4.1388 1.3808 0.0711
v  3.0779 1.3808 -1.9516
v  2.0170 0.4892 2.0937
v  4.1388 0.4892 2.0937
v  4.1388 0.4892 -1.9516
v  2.0170 0.4892 -1.9516
# 98 vertices

vn -0.3416 -0.8756 0.3416
vn -0.3827 -0.9239 -0.0000
vn 0.0000 -1.0000 -0.0000
vn 0.0000 -0.9239 0.3827
vn 0.3827 -0.9239 -0.0000
vn 0.3416 -0.8756 0.3416
vn -0.3416 -0.8756 -0.3416
vn 0.0000 -0.9239 -0.3827
vn 0.3416 -0.8756 -0.3416
vn -0.3416 0.8756 0.3416
vn 0.0000 0.9239 0.3827
vn 0.0000 1.0000 -0.0000
vn -0.3826 0.9239 -0.0000
vn 0.3416 0.8756 0.3416
vn 0.3826 0.9239 -0.0000
vn 0.0000 0.9239 -0.3827
vn -0.3416 0.8756 -0.3416
vn 0.3416 0.8756 -0.3416
vn -0.3416 -0.3416 0.8756
vn 0.0000 -0.3827 0.9239
vn 0.0000 0.0000 1.0000
vn -0.3826 0.0000 0.9239
vn 0.3416 -0.3416 0.8756
vn 0.3826 0.0000 0.9239
vn 0.0000 0.3827 0.9239
vn -0.3416 0.3416 0.8756
vn 0.3416 0.3416 0.8756
vn 0.8756 -0.3416 0.3416
vn 0.9239 -0.3827 -0.0000
vn 1.0000 0.0000 -0.0000
vn 0.9239 0.0000 0.3826
vn 0.8756 -0.3416 -0.3416
vn 0.9239 0.0000 -0.3826
vn 0.9239 0.3826 -0.0000
vn 0.8756 0.3416 0.3416
vn 0.8756 0.3416 -0.3416
vn 0.3416 -0.3416 -0.8756
vn 0.0000 -0.3827 -0.9239
vn 0.0000 0.0000 -1.0000
vn 0.3826 0.0000 -0.9239
vn -0.3416 -0.3416 -0.8756
vn -0.3826 0.0000 -0.9239
vn 0.0000 0.3827 -0.9239
vn 0.3416 0.3416 -0.8756
vn -0.3416 0.3416 -0.8756
vn -0.8756 -0.3416 -0.3416
vn -0.9239 -0.3827 -0.0000
vn -1.0000 0.0000 -0.0000
vn -0.9239 0.0000 -0.3826
vn -0.8756 -0.3416 0.3416
vn -0.9239 0.0000 0.3826
vn -0.9239 0.3826 -0.0000
vn -0.8756 0.3416 -0.3416
vn -0.8756 0.3416 0.3416
vn -0.3029 -0.6739 0.6739
vn -0.5773 -0.5774 0.5774
vn -0.6739 -0.6739 0.3029
vn 0.6739 -0.6739 0.3029
vn 0.5773 -0.5774 0.5774
vn 0.3029 -0.6739 0.6739
vn -0.6739 -0.6739 -0.3029
vn -0.5773 -0.5774 -0.5774
vn -0.3029 -0.6739 -0.6739
vn 0.3029 -0.6739 -0.6739
vn 0.5773 -0.5774 -0.5774
vn 0.6739 -0.6739 -0.3029
vn -0.6739 0.6739 0.3029
vn -0.5773 0.5774 0.5774
vn -0.3029 0.6739 0.6739
vn 0.3029 0.6739 0.6739
vn 0.5773 0.5774 0.5774
vn 0.6739 0.6739 0.3029
vn -0.3029 0.6739 -0.6739
vn -0.5773 0.5774 -0.5774
vn -0.6739 0.6739 -0.3029
vn 0.6739 0.6739 -0.3029
vn 0.5773 0.5774 -0.5774
vn 0.3029 0.6739 -0.6739
vn -0.6739 -0.3029 0.6739
vn 0.6739 -0.3029 0.6739
vn -0.6739 0.3029 0.6739
vn 0.6739 0.3029 0.6739
vn 0.6739 -0.3029 -0.6739
vn 0.6739 0.3029 -0.6739
vn -0.6739 -0.3029 -0.6739
vn -0.6739 0.3029 -0.6739
vn -0.7071 -0.7071 -0.0000
vn 0.0000 -0.7071 0.7071
vn 0.7071 -0.7071 -0.0000
vn 0.0000 -0.7071 -0.7071
vn 0.0000 0.7071 0.7071
vn -0.7071 0.7071 -0.0000
vn 0.7071 0.7071 -0.0000
vn 0.0000 0.7071 -0.7071
vn -0.7071 0.0000 0.7071
vn 0.7071 0.0000 0.7071
vn 0.7071 0.0000 -0.7071
vn -0.7071 0.0000 -0.7071
# 98 vertex normals

vt 0.9507 0.0265 0.0000
vt 0.9507 0.5000 0.0000
vt 0.5000 0.5000 0.0000
vt 0.5000 0.0265 0.0000
vt 0.0493 0.5000 0.0000
vt 0.0493 0.0265 0.0000
vt 0.9507 0.9735 0.0000
vt 0.5000 0.9735 0.0000
vt 0.0493 0.9735 0.0000
vt 0.0493 0.0750 0.0000
vt 0.5000 0.0750 0.0000
vt 0.9507 0.0750 0.0000
vt 0.5000 0.9250 0.0000
vt 0.0493 0.9250 0.0000
vt 0.9507 0.9250 0.0000
vt 0.0265 0.0750 0.0000
vt 0.0265 0.5000 0.0000
vt 0.9735 0.0750 0.0000
vt 0.9735 0.5000 0.0000
vt 0.0265 0.9250 0.0000
vt 0.9735 0.9250 0.0000
vt 0.9507 0.0000 0.0000
vt 1.0000 0.0000 0.0000
vt 1.0000 0.0265 0.0000
vt 0.0000 0.0265 0.0000
vt 0.0000 0.0000 0.0000
vt 0.0493 0.0000 0.0000
vt 1.0000 0.9735 0.0000
vt 1.0000 1.0000 0.0000
vt 0.9507 1.0000 0.0000
vt 0.0493 1.0000 0.0000
vt 0.0000 1.0000 0.0000
vt 0.0000 0.9735 0.0000
vt 0.0000 0.0750 0.0000
vt 1.0000 0.0750 0.0000
vt 0.0000 0.9250 0.0000
vt 1.0000 0.9250 0.0000
vt 0.0265 0.0000 0.0000
vt 0.9735 0.0000 0.0000
vt 0.0265 1.0000 0.0000
vt 0.9735 1.0000 0.0000
vt 1.0000 0.5000 0.0000
vt 0.5000 0.0000 0.0000
vt 0.0000 0.5000 0.0000
vt 0.5000 1.0000 0.0000
# 45 texture coords

o Box002
g Box002
usemtl Material__28
s 1
f 99/46/99 100/47/100 101/48/101 102/49/102 
f 102/49/102 101/48/101 103/50/103 104/51/104 
f 100/47/100 105/52/105 106/53/106 101/48/101 
f 101/48/101 106/53/106 107/54/107 103/50/103 
f 108/51/108 109/49/109 110/48/110 111/50/111 
f 109/49/109 112/46/112 113/47/113 110/48/110 
f 111/50/111 110/48/110 114/53/114 115/54/115 
f 110/48/110 113/47/113 116/52/116 114/53/114 
f 117/55/117 118/56/118 119/48/119 120/50/120 
f 118/56/118 121/57/121 122/47/122 119/48/119 
f 120/50/120 119/48/119 123/58/123 124/59/124 
f 119/48/119 122/47/122 125/60/125 123/58/123 
f 126/61/126 127/56/127 128/48/128 129/62/129 
f 127/56/127 130/63/130 131/64/131 128/48/128 
f 129/62/129 128/48/128 132/58/132 133/65/133 
f 128/48/128 131/64/131 134/66/134 132/58/132 
f 135/55/135 136/56/136 137/48/137 138/50/138 
f 136/56/136 139/57/139 140/47/140 137/48/137 
f 138/50/138 137/48/137 141/58/141 142/59/142 
f 137/48/137 140/47/140 143/60/143 141/58/141 
f 144/61/144 145/56/145 146/48/146 147/62/147 
f 145/56/145 148/63/148 149/64/149 146/48/146 
f 147/62/147 146/48/146 150/58/150 151/65/151 
f 146/48/146 149/64/149 152/66/152 150/58/150 
s 2
f 99/46/99 153/67/153 154/68/154 155/69/155 
f 104/51/104 156/70/156 157/71/157 158/72/158 
f 105/52/105 159/73/159 160/74/160 161/75/161 
f 107/54/107 162/76/162 163/77/163 164/78/164 
f 108/51/108 165/70/165 166/71/166 167/72/167 
f 112/46/112 168/67/168 169/68/169 170/69/170 
f 115/54/115 171/76/171 172/77/172 173/78/173 
f 116/52/116 174/73/174 175/74/175 176/75/176 
f 117/55/117 177/79/177 154/71/154 153/72/153 
f 121/57/121 158/67/158 157/68/157 178/80/178 
f 124/59/124 167/76/167 166/77/166 179/81/179 
f 125/60/125 180/82/180 169/74/169 168/75/168 
f 126/61/126 178/79/178 157/71/157 156/83/156 
f 130/63/130 164/84/164 163/68/163 181/80/181 
f 133/65/133 170/85/170 169/77/169 180/81/180 
f 134/66/134 182/82/182 175/74/175 174/86/174 
f 135/55/135 181/79/181 163/71/163 162/72/162 
f 139/57/139 161/67/161 160/68/160 183/80/183 
f 142/59/142 176/76/176 175/77/175 182/81/182 
f 143/60/143 184/82/184 172/74/172 171/75/171 
f 144/61/144 183/79/183 160/71/160 159/83/159 
f 148/63/148 155/84/155 154/68/154 177/80/177 
f 151/65/151 173/85/173 172/77/172 184/81/184 
f 152/66/152 179/82/179 166/74/166 165/86/165 
s 4
f 100/47/100 99/46/99 155/69/155 185/87/185 
s 8
f 99/46/99 102/49/102 186/88/186 153/67/153 
s 4
f 104/51/104 103/50/103 187/89/187 156/70/156 
s 8
f 102/49/102 104/51/104 158/72/158 186/88/186 
s 4
f 105/52/105 100/47/100 185/87/185 159/73/159 
s 8
f 106/53/106 105/52/105 161/75/161 188/90/188 
f 107/54/107 106/53/106 188/90/188 162/76/162 
s 4
f 103/50/103 107/54/107 164/78/164 187/89/187 
f 109/49/109 108/51/108 167/72/167 189/88/189 
s 8
f 108/51/108 111/50/111 190/89/190 165/70/165 
s 4
f 112/46/112 109/49/109 189/88/189 168/67/168 
s 8
f 113/47/113 112/46/112 170/69/170 191/87/191 
s 4
f 115/54/115 114/53/114 192/90/192 171/76/171 
s 8
f 111/50/111 115/54/115 173/78/173 190/89/190 
f 116/52/116 113/47/113 191/87/191 174/73/174 
s 4
f 114/53/114 116/52/116 176/75/176 192/90/192 
s 8
f 118/56/118 117/55/117 153/72/153 186/88/186 
s 16
f 117/55/117 120/50/120 193/89/193 177/79/177 
s 8
f 121/57/121 118/56/118 186/88/186 158/67/158 
s 16
f 122/47/122 121/57/121 178/80/178 194/87/194 
s 4
f 124/59/124 123/58/123 189/90/189 167/76/167 
s 16
f 120/50/120 124/59/124 179/81/179 193/89/193 
f 125/60/125 122/47/122 194/87/194 180/82/180 
s 4
f 123/58/123 125/60/125 168/75/168 189/90/189 
f 127/56/127 126/61/126 156/83/156 187/88/187 
s 16
f 126/61/126 129/62/129 194/89/194 178/79/178 
s 4
f 130/63/130 127/56/127 187/88/187 164/84/164 
s 16
f 131/64/131 130/63/130 181/80/181 195/87/195 
s 8
f 133/65/133 132/58/132 191/90/191 170/85/170 
s 16
f 129/62/129 133/65/133 180/81/180 194/89/194 
f 134/66/134 131/64/131 195/87/195 182/82/182 
s 8
f 132/58/132 134/66/134 174/86/174 191/90/191 
f 136/56/136 135/55/135 162/72/162 188/88/188 
s 16
f 135/55/135 138/50/138 195/89/195 181/79/181 
s 8
f 139/57/139 136/56/136 188/88/188 161/67/161 
s 16
f 140/47/140 139/57/139 183/80/183 196/87/196 
s 4
f 142/59/142 141/58/141 192/90/192 176/76/176 
s 16
f 138/50/138 142/59/142 182/81/182 195/89/195 
f 143/60/143 140/47/140 196/87/196 184/82/184 
s 4
f 141/58/141 143/60/143 171/75/171 192/90/192 
f 145/56/145 144/61/144 159/83/159 185/88/185 
s 16
f 144/61/144 147/62/147 196/89/196 183/79/183 
s 4
f 148/63/148 145/56/145 185/88/185 155/84/155 
s 16
f 149/64/149 148/63/148 177/80/177 193/87/193 
s 8
f 151/65/151 150/58/150 190/90/190 173/85/173 
s 16
f 147/62/147 151/65/151 184/81/184 196/89/196 
f 152/66/152 149/64/149 193/87/193 179/82/179 
s 8
f 150/58/150 152/66/152 165/86/165 190/90/190 
# 96 polygons

